<?xml version="1.0" encoding="UTF-8"?>
<svg id="Layer_1" xmlns="http://www.w3.org/2000/svg" version="1.1" viewBox="0 0 1200 1200">
  <!-- Generator: Adobe Illustrator 29.1.0, SVG Export Plug-In . SVG Version: 2.1.0 Build 142)  -->
  <defs>
    <style>
      .st0 {
        fill: #fff;
      }
    </style>
  </defs>
  <g>
    <path class="st0" d="M621,248.2v226.1c0,11.6-9.4,21-21,21h0c-11.6,0-21-9.4-21-21v-225.6c0-11.5,9.1-21.3,20.6-21.5,5.9,0,11.3,2.3,15.1,6.1,3.8,3.8,6.1,9,6.1,14.8h0Z"/>
    <path class="st0" d="M537.2,558.1h0c0,11.6-9.4,21-21,21h-225.5c-11.4,0-21.1-8.8-21.5-20.2s9.1-21.7,20.9-21.7h226.1c11.6,0,21,9.4,21,21h0Z"/>
    <path class="st0" d="M930.8,557.8c0,5.9-2.3,11.3-6.1,15.1-3.8,3.8-9,6.1-14.8,6.1h-226.1c-11.6,0-21-9.4-21-21h0c0-11.6,9.4-21,21-21h225.5c11.5,0,21.3,9.1,21.5,20.6Z"/>
    <path class="st0" d="M840,339c0,5.4-2,10.7-6.1,14.8l-135.3,135.3c-3.9,3.9-9.3,6.1-14.8,6.1h0c-11.6,0-20.9-9.4-20.9-20.9h0c0-5.5,2.2-10.9,6.1-14.8l134.9-134.9c8.2-8.2,21.6-8.7,29.9-.6,4.2,4.1,6.3,9.5,6.3,15h0Z"/>
    <path class="st0" d="M621,566.8v300.6c0,11.4-8.8,21.1-20.2,21.5s-21.7-9.1-21.7-20.9v-288.9c0-7.8-3.1-15.4-8.7-20.9h0l-21-21-41.9-41.9-141.1-141.1c-8-8-8.6-21.2-.9-29.5,8.1-8.7,21.8-8.9,30.1-.5l141.5,141.5,41.9,41.9,21,21,8.7,8.7h0c7.9,7.9,12.3,18.5,12.3,29.7h0Z"/>
  </g>
  <circle class="st0" cx="600" cy="951.8" r="21"/>
</svg>