<svg xmlns="http://www.w3.org/2000/svg" width="30" height="33" viewBox="0 0 30 33">
  <g id="earbuds-logo" transform="translate(-269.198 -227.298)">
    <g id="Group_46" data-name="Group 46" transform="translate(269.198 227.298)">
      <path id="Path_1" data-name="Path 1" d="M580.957,228.251v10.288a.953.953,0,0,1-.953.953h0a.953.953,0,0,1-.953-.953V228.274a.969.969,0,0,1,.939-.977.954.954,0,0,1,.968.953Z" transform="translate(-565.003 -227.298)" fill="#fff"/>
      <path id="Path_2" data-name="Path 2" d="M281.393,538.1h0a.953.953,0,0,1-.953.953H270.176a.954.954,0,1,1-.025-1.907H280.44A.953.953,0,0,1,281.393,538.1Z" transform="translate(-269.198 -523.51)" fill="#fff"/>
      <path id="Path_3" data-name="Path 3" d="M675.035,538.089a.954.954,0,0,1-.953.968H663.793a.953.953,0,0,1-.953-.953h0a.953.953,0,0,1,.953-.953h10.265A.969.969,0,0,1,675.035,538.089Z" transform="translate(-645.035 -523.51)" fill="#fff"/>
      <path id="Path_4" data-name="Path 4" d="M670.9,319.148a.95.95,0,0,1-.279.674l-6.158,6.158a.953.953,0,0,1-.674.279h0a.953.953,0,0,1-.953-.953h0a.955.955,0,0,1,.279-.674l6.14-6.14a.97.97,0,0,1,1.36-.025A.95.95,0,0,1,670.9,319.148Z" transform="translate(-645.035 -314.064)" fill="#fff"/>
      <path id="Path_5" data-name="Path 5" d="M371.956,328.972v13.195a.954.954,0,0,1-1.907.024V329.508a1.277,1.277,0,0,0-.395-.919h0l-.953-.92-1.906-1.839-6.42-6.192a.911.911,0,0,1-.04-1.294.977.977,0,0,1,1.371-.023l6.437,6.209,1.906,1.839.953.92.395.381h0A1.808,1.808,0,0,1,371.956,328.972Z" transform="translate(-355.948 -313.923)" fill="#fff"/>
    </g>
    <circle id="Ellipse_6" data-name="Ellipse 6" cx="0.953" cy="0.953" r="0.953" transform="translate(283.245 258.391)" fill="#fff"/>
  </g>
</svg>
