<?xml version="1.0" encoding="UTF-8"?>
<svg id="Layer_1" xmlns="http://www.w3.org/2000/svg" version="1.1" viewBox="0 0 45 45">
  <!-- Generator: Adobe Illustrator 29.0.1, SVG Export Plug-In . SVG Version: 2.1.0 Build 192)  -->
  <defs>
    <style>
      .st0 {
        fill: #fff;
      }

      .st1 {
        fill: #c67d3c;
      }
    </style>
  </defs>
  <circle class="st0" cx="22.5" cy="22.5" r="22.5"/>
  <circle class="st1" cx="22.5" cy="22.5" r="19.59"/>
  <path class="st0" d="M39.84,23.02c0,.26-.09.65-.21.88-3.26,6.37-9.73,10.68-17.13,10.68s-13.87-4.31-17.13-10.68c-.12-.23-.21-.62-.21-.88s.09-.65.21-.88c3.26-6.37,9.73-10.68,17.13-10.68s13.87,4.31,17.13,10.68c.12.23.21.62.21.88ZM36.83,23.02c-2.94-5.36-8.39-8.67-14.33-8.67s-11.39,3.31-14.33,8.67c2.94,5.36,8.39,8.67,14.33,8.67s11.39-3.31,14.33-8.67ZM22.52,16.27c3.71,0,6.73,3.01,6.73,6.73s-3.01,6.73-6.73,6.73-6.73-3.01-6.73-6.73c0-.53.12-1.36.26-1.86.42.24,1.15.43,1.63.44,1.86,0,3.37-1.51,3.37-3.37,0-.48-.2-1.21-.44-1.62.51-.16,1.35-.29,1.88-.3h.02Z"/>
</svg>