<?xml version="1.0" encoding="UTF-8"?>
<svg id="Layer_1" xmlns="http://www.w3.org/2000/svg" version="1.1" viewBox="0 0 45 45">
  <!-- Generator: Adobe Illustrator 29.0.1, SVG Export Plug-In . SVG Version: 2.1.0 Build 192)  -->
  <path d="M37.97,18.28v4.22c0,7.81-5.83,14.28-13.36,15.31v2.97h4.92c.78,0,1.41.63,1.41,1.41v1.41c0,.78-.63,1.41-1.41,1.41h-14.06c-.78,0-1.41-.63-1.41-1.41v-1.41c0-.78.63-1.41,1.41-1.41h4.92v-3c-7.74-1.07-13.36-8.09-13.36-15.97v-3.53c0-.78.63-1.41,1.41-1.41h1.41c.78,0,1.41.63,1.41,1.41v3.72c0,5.87,4.28,11.13,10.13,11.7,6.71.66,12.37-4.62,12.37-11.2v-4.22c0-.78.63-1.41,1.41-1.41h1.41c.78,0,1.41.63,1.41,1.41ZM14.06,22.5v-14.06C14.06,3.78,17.84,0,22.5,0s8.44,3.78,8.44,8.44v14.06c0,4.66-3.78,8.44-8.44,8.44s-8.44-3.78-8.44-8.44Z"/>
</svg>