<?xml version="1.0" encoding="UTF-8"?>
<svg id="Layer_1" xmlns="http://www.w3.org/2000/svg" version="1.1" viewBox="0 0 45 45">
  <!-- Generator: Adobe Illustrator 29.0.1, SVG Export Plug-In . SVG Version: 2.1.0 Build 192)  -->
  <path d="M33.41,10c-3.13-3.13-8.22-3.12-11.36.01-2.37,2.37-2.96,5.88-1.73,8.81l1.21-1.21c-.68-2.22-.14-4.74,1.62-6.5,2.53-2.53,6.64-2.53,9.16-.01s2.53,6.64,0,9.17c-1.67,1.67-4.05,2.24-6.18,1.69l-1.1,1.1c.16.1.34.21.49.34,2.72.78,5.75.1,7.88-2.03,3.13-3.13,3.13-8.24,0-11.37Z"/>
  <path d="M36.27,7.14c-4.71-4.71-12.38-4.71-17.09,0-2.97,2.97-4.07,7.1-3.29,10.94.07,0,.13.02.21.03.6.12,1.18.41,1.62.82-1.18-3.64-.33-7.81,2.56-10.7,4.1-4.1,10.79-4.1,14.89,0s4.1,10.79,0,14.89c-2.15,2.15-5,3.18-7.84,3.07.37.26.67.6.91,1.02.1.16.16.34.23.52,2.84-.18,5.63-1.34,7.8-3.51,4.71-4.71,4.72-12.37,0-17.09Z"/>
  <g>
    <path d="M18.27,40.18l-.69-.69c.44.64.45,1.51-.01,2.14l.69-.69c.21-.21.22-.55.01-.76Z"/>
    <path d="M15.27,41.34c-.43-.43-.43-1.11,0-1.54s1.11-.43,1.54,0,.43,1.11,0,1.54-1.11.43-1.54,0Z"/>
    <path d="M17.11,42.08l-.7.7c-.21.21-.54.21-.75,0l-.69-.69c.63.45,1.51.45,2.14-.01Z"/>
    <path d="M14.51,41.63l-6.25-6.25c-.21-.21-.21-.54,0-.75l1.85-1.85c.21-.21.55-.22.76-.01l6.26,6.26c-.74-.52-1.76-.44-2.41.21s-.73,1.67-.21,2.39Z"/>
    <path d="M27.22,34.46l-.63.6c-1.25,1.25-2.29,1.58-3.4,1.95-.88.26-1.78.55-2.76,1.26-.21.16-.51.13-.68-.04l-6.62-6.62c-.52-.52-.68-1.28-.42-1.96.08-.23,2.05-5.48,1.15-7.71-.31-.75-.22-1.34.25-1.81s1.06-.64,1.67-.51c.22.04.42.13.6.23.12.08.23.16.33.26.16.16.31.37.41.63.16.41.29.86.36,1.35v.02l.25,1.46,6.83-6.83c.6-.6,1.73-.63,2.32-.03s.58,1.68-.04,2.31l-5.15,5.15,1.83.04c.44,0,.91.23,1.23.59.21.23.43.58.49,1.09.01.14.02.29.01.45l-.06.67.66.15c.38.08.66.31.81.53.09.09.14.19.2.26.23.41.31.9.19,1.24l-.18.55.47.34c.75.51,1.17,1.08,1.21,1.69.07.77-.4,1.69-1.36,2.66Z"/>
  </g>
</svg>