<?xml version="1.0" encoding="UTF-8"?>
<svg id="Layer_1" xmlns="http://www.w3.org/2000/svg" version="1.1" viewBox="0 0 45 45">
  <!-- Generator: Adobe Illustrator 29.0.1, SVG Export Plug-In . SVG Version: 2.1.0 Build 192)  -->
  <path d="M24,7.45v31.5c0,2.01-2.43,3-3.84,1.59l-8.34-8.34H2.25C1.01,32.19,0,31.19,0,29.94v-13.5C0,15.2,1.01,14.19,2.25,14.19h9.57l8.34-8.34c1.41-1.41,3.84-.42,3.84,1.59ZM36,23.19c0,2.99-1.64,5.75-4.29,7.21-1.08.6-2.46.21-3.06-.89-.6-1.09-.2-2.46.89-3.06,1.21-.66,1.96-1.91,1.96-3.26s-.75-2.6-1.96-3.26c-1.09-.6-1.48-1.97-.89-3.06.6-1.09,1.97-1.48,3.06-.89,2.65,1.46,4.29,4.22,4.29,7.21ZM36.96,37.84c-1.13.72-2.5.27-3.11-.7-.66-1.06-.35-2.46.69-3.13,3.73-2.38,5.95-6.42,5.95-10.82s-2.22-8.44-5.95-10.82c-1.05-.67-1.36-2.07-.69-3.13.67-1.06,2.06-1.37,3.11-.7,5.04,3.22,8.04,8.69,8.04,14.65s-3.01,11.43-8.04,14.65Z"/>
</svg>